{
  "accessors": [
    {
      "bufferView": 1,
      "componentType": 5126,
      "count": 65532,
      "max": [
        27.37081527709961,
        54.664894104003906,
        96.94976043701172
      ],
      "min": [
        -68.03709411621094,
        -47.383934020996094,
        4.544854164123535e-06
      ],
      "type": "VEC3"
    },
    {
      "bufferView": 1,
      "byteOffset": 786384,
      "componentType": 5126,
      "count": 65532,
      "max": [
        0.999992847442627,
        0.9999703168869019,
        0.9530296325683594
      ],
      "min": [
        -0.9999344348907471,
        -0.9998701810836792,
        -1.0
      ],
      "type": "VEC3"
    },
    {
      "bufferView": 0,
      "componentType": 5125,
      "count": 323478,
      "type": "SCALAR"
    },
    {
      "bufferView": 1,
      "byteOffset": 1572768,
      "componentType": 5126,
      "count": 65532,
      "max": [
        32.751495361328125,
        53.21350860595703,
        99.54954528808594
      ],
      "min": [
        -66.23664855957031,
        -44.97492980957031,
        0.03962373733520508
      ],
      "type": "VEC3"
    },
    {
      "bufferView": 1,
      "byteOffset": 2359152,
      "componentType": 5126,
      "count": 65532,
      "max": [
        0.9986844658851624,
        0.9975400567054749,
        0.9999768733978271
      ],
      "min": [
        -0.9999996423721313,
        -0.9997839331626892,
        -0.9999818205833435
      ],
      "type": "VEC3"
    },
    {
      "bufferView": 0,
      "byteOffset": 1293912,
      "componentType": 5125,
      "count": 306987,
      "type": "SCALAR"
    },
    {
      "bufferView": 1,
      "byteOffset": 3145536,
      "componentType": 5126,
      "count": 65532,
      "max": [
        37.40528869628906,
        51.011863708496094,
        96.62296295166016
      ],
      "min": [
        -68.27476501464844,
        -47.383934020996094,
        0.06055071949958801
      ],
      "type": "VEC3"
    },
    {
      "bufferView": 1,
      "byteOffset": 3931920,
      "componentType": 5126,
      "count": 65532,
      "max": [
        0.9999197125434875,
        0.9957655668258667,
        0.9999864101409912
      ],
      "min": [
        -0.9999579787254333,
        -0.9999913573265076,
        -0.9994454383850098
      ],
      "type": "VEC3"
    },
    {
      "bufferView": 0,
      "byteOffset": 2521860,
      "componentType": 5125,
      "count": 310659,
      "type": "SCALAR"
    },
    {
      "bufferView": 1,
      "byteOffset": 4718304,
      "componentType": 5126,
      "count": 65532,
      "max": [
        38.72200012207031,
        53.46440887451172,
        94.16268920898438
      ],
      "min": [
        -67.6921615600586,
        -46.39373779296875,
        0.46427953243255615
      ],
      "type": "VEC3"
    },
    {
      "bufferView": 1,
      "byteOffset": 5504688,
      "componentType": 5126,
      "count": 65532,
      "max": [
        0.999992847442627,
        0.999975860118866,
        0.9998908638954163
      ],
      "min": [
        -0.9999684691429138,
        -0.9998329877853394,
        -0.9956251978874207
      ],
      "type": "VEC3"
    },
    {
      "bufferView": 0,
      "byteOffset": 3764496,
      "componentType": 5125,
      "count": 318528,
      "type": "SCALAR"
    },
    {
      "bufferView": 1,
      "byteOffset": 6291072,
      "componentType": 5126,
      "count": 65532,
      "max": [
        39.13752746582031,
        54.7225341796875,
        99.6644287109375
      ],
      "min": [
        -66.76860809326172,
        -45.71928405761719,
        0.019742444157600403
      ],
      "type": "VEC3"
    },
    {
      "bufferView": 1,
      "byteOffset": 7077456,
      "componentType": 5126,
      "count": 65532,
      "max": [
        0.9999700784683228,
        0.9999855756759644,
        0.9999998807907104
      ],
      "min": [
        -0.9999942779541016,
        -0.9999738931655884,
        -0.9987793564796448
      ],
      "type": "VEC3"
    },
    {
      "bufferView": 0,
      "byteOffset": 5038608,
      "componentType": 5125,
      "count": 311850,
      "type": "SCALAR"
    },
    {
      "bufferView": 1,
      "byteOffset": 7863840,
      "componentType": 5126,
      "count": 65532,
      "max": [
        40.023475646972656,
        54.72154235839844,
        96.78125762939453
      ],
      "min": [
        -67.1358871459961,
        -47.375885009765625,
        0.6515282988548279
      ],
      "type": "VEC3"
    },
    {
      "bufferView": 1,
      "byteOffset": 8650224,
      "componentType": 5126,
      "count": 65532,
      "max": [
        0.9999700784683228,
        0.9999998211860657,
        0.9999755620956421
      ],
      "min": [
        -0.9998282194137573,
        -0.999980628490448,
        -0.9999899864196777
      ],
      "type": "VEC3"
    },
    {
      "bufferView": 0,
      "byteOffset": 6286008,
      "componentType": 5125,
      "count": 315528,
      "type": "SCALAR"
    },
    {
      "bufferView": 1,
      "byteOffset": 9436608,
      "componentType": 5126,
      "count": 65532,
      "max": [
        38.837860107421875,
        54.457298278808594,
        99.86578369140625
      ],
      "min": [
        -67.53462219238281,
        -47.017799377441406,
        0.029079556465148926
      ],
      "type": "VEC3"
    },
    {
      "bufferView": 1,
      "byteOffset": 10222992,
      "componentType": 5126,
      "count": 65532,
      "max": [
        0.9999706149101257,
        0.9999971985816956,
        0.9999794363975525
      ],
      "min": [
        -0.9999280571937561,
        -0.9999995231628418,
        -0.9999778270721436
      ],
      "type": "VEC3"
    },
    {
      "bufferView": 0,
      "byteOffset": 7548120,
      "componentType": 5125,
      "count": 307824,
      "type": "SCALAR"
    },
    {
      "bufferView": 1,
      "byteOffset": 11009376,
      "componentType": 5126,
      "count": 65532,
      "max": [
        39.811302185058594,
        54.7225341796875,
        99.57162475585938
      ],
      "min": [
        -67.92162322998047,
        -47.383934020996094,
        4.5746564865112305e-06
      ],
      "type": "VEC3"
    },
    {
      "bufferView": 1,
      "byteOffset": 11795760,
      "componentType": 5126,
      "count": 65532,
      "max": [
        0.9997985363006592,
        0.9999855756759644,
        0.9999966621398926
      ],
      "min": [
        -0.9999473094940186,
        -0.9999203085899353,
        -0.9999901652336121
      ],
      "type": "VEC3"
    },
    {
      "bufferView": 0,
      "byteOffset": 8779416,
      "componentType": 5125,
      "count": 259725,
      "type": "SCALAR"
    },
    {
      "bufferView": 1,
      "byteOffset": 12582144,
      "componentType": 5126,
      "count": 65533,
      "max": [
        39.834068298339844,
        54.70012664794922,
        99.7953872680664
      ],
      "min": [
        -67.95744323730469,
        -46.724708557128906,
        4.5746564865112305e-06
      ],
      "type": "VEC3"
    },
    {
      "bufferView": 1,
      "byteOffset": 13368540,
      "componentType": 5126,
      "count": 65533,
      "max": [
        0.9999712705612183,
        0.9999922513961792,
        0.9999993443489075
      ],
      "min": [
        -0.9998989701271057,
        -0.9999687075614929,
        -0.9999920725822449
      ],
      "type": "VEC3"
    },
    {
      "bufferView": 0,
      "byteOffset": 9818316,
      "componentType": 5125,
      "count": 168612,
      "type": "SCALAR"
    },
    {
      "bufferView": 1,
      "byteOffset": 14154936,
      "componentType": 5126,
      "count": 23526,
      "max": [
        40.023475646972656,
        54.721099853515625,
        99.86307525634766
      ],
      "min": [
        -68.26558685302734,
        -47.30662536621094,
        4.5746564865112305e-06
      ],
      "type": "VEC3"
    },
    {
      "bufferView": 1,
      "byteOffset": 14437248,
      "componentType": 5126,
      "count": 23526,
      "max": [
        0.9999943971633911,
        0.9999938011169434,
        0.9999353289604187
      ],
      "min": [
        -0.9998003840446472,
        -0.9999921321868896,
        -0.9995334148406982
      ],
      "type": "VEC3"
    },
    {
      "bufferView": 0,
      "byteOffset": 10492764,
      "componentType": 5125,
      "count": 38661,
      "type": "SCALAR"
    }
  ],
  "asset": {
    "extras": {
      "author": "Patrickart.hk (https://sketchfab.com/Patrickart.hk)",
      "license": "CC-BY-NC-ND-4.0 (http://creativecommons.org/licenses/by-nc-nd/4.0/)",
      "source": "https://sketchfab.com/3d-models/mewpokemon-f888139b8dc84f2193a8a14026c43abc",
      "title": "Mew((Pokemon)"
    },
    "generator": "Sketchfab-12.68.0",
    "version": "2.0"
  },
  "bufferViews": [
    {
      "buffer": 0,
      "byteLength": 10647408,
      "name": "floatBufferViews",
      "target": 34963
    },
    {
      "buffer": 0,
      "byteLength": 14719560,
      "byteOffset": 10647408,
      "byteStride": 12,
      "name": "floatBufferViews",
      "target": 34962
    }
  ],
  "buffers": [
    {
      "byteLength": 25366968,
      "uri": "scene.bin"
    }
  ],
  "materials": [
    {
      "doubleSided": true,
      "name": "Scene_-_Root",
      "pbrMetallicRoughness": {
        "metallicFactor": 0.0,
        "roughnessFactor": 0.6
      }
    }
  ],
  "meshes": [
    {
      "name": "Object_0",
      "primitives": [
        {
          "attributes": {
            "NORMAL": 1,
            "POSITION": 0
          },
          "indices": 2,
          "material": 0,
          "mode": 4
        }
      ]
    },
    {
      "name": "Object_1",
      "primitives": [
        {
          "attributes": {
            "NORMAL": 4,
            "POSITION": 3
          },
          "indices": 5,
          "material": 0,
          "mode": 4
        }
      ]
    },
    {
      "name": "Object_2",
      "primitives": [
        {
          "attributes": {
            "NORMAL": 7,
            "POSITION": 6
          },
          "indices": 8,
          "material": 0,
          "mode": 4
        }
      ]
    },
    {
      "name": "Object_3",
      "primitives": [
        {
          "attributes": {
            "NORMAL": 10,
            "POSITION": 9
          },
          "indices": 11,
          "material": 0,
          "mode": 4
        }
      ]
    },
    {
      "name": "Object_4",
      "primitives": [
        {
          "attributes": {
            "NORMAL": 13,
            "POSITION": 12
          },
          "indices": 14,
          "material": 0,
          "mode": 4
        }
      ]
    },
    {
      "name": "Object_5",
      "primitives": [
        {
          "attributes": {
            "NORMAL": 16,
            "POSITION": 15
          },
          "indices": 17,
          "material": 0,
          "mode": 4
        }
      ]
    },
    {
      "name": "Object_6",
      "primitives": [
        {
          "attributes": {
            "NORMAL": 19,
            "POSITION": 18
          },
          "indices": 20,
          "material": 0,
          "mode": 4
        }
      ]
    },
    {
      "name": "Object_7",
      "primitives": [
        {
          "attributes": {
            "NORMAL": 22,
            "POSITION": 21
          },
          "indices": 23,
          "material": 0,
          "mode": 4
        }
      ]
    },
    {
      "name": "Object_8",
      "primitives": [
        {
          "attributes": {
            "NORMAL": 25,
            "POSITION": 24
          },
          "indices": 26,
          "material": 0,
          "mode": 4
        }
      ]
    },
    {
      "name": "Object_9",
      "primitives": [
        {
          "attributes": {
            "NORMAL": 28,
            "POSITION": 27
          },
          "indices": 29,
          "material": 0,
          "mode": 4
        }
      ]
    }
  ],
  "nodes": [
    {
      "children": [
        1
      ],
      "matrix": [
        1.0,
        0.0,
        0.0,
        0.0,
        0.0,
        2.220446049250313e-16,
        -1.0,
        0.0,
        0.0,
        1.0,
        2.220446049250313e-16,
        0.0,
        0.0,
        0.0,
        0.0,
        1.0
      ],
      "name": "Sketchfab_model"
    },
    {
      "children": [
        2,
        3,
        4,
        5,
        6,
        7,
        8,
        9,
        10,
        11
      ],
      "name": "Mew_50MB.stl.cleaner.materialmerger.gles"
    },
    {
      "mesh": 0,
      "name": "Object_2"
    },
    {
      "mesh": 1,
      "name": "Object_3"
    },
    {
      "mesh": 2,
      "name": "Object_4"
    },
    {
      "mesh": 3,
      "name": "Object_5"
    },
    {
      "mesh": 4,
      "name": "Object_6"
    },
    {
      "mesh": 5,
      "name": "Object_7"
    },
    {
      "mesh": 6,
      "name": "Object_8"
    },
    {
      "mesh": 7,
      "name": "Object_9"
    },
    {
      "mesh": 8,
      "name": "Object_10"
    },
    {
      "mesh": 9,
      "name": "Object_11"
    }
  ],
  "scene": 0,
  "scenes": [
    {
      "name": "Sketchfab_Scene",
      "nodes": [
        0
      ]
    }
  ]
}
