{
  "accessors": [
    {
      "bufferView": 2,
      "componentType": 5126,
      "count": 13316,
      "max": [
        0.48492300510406494,
        0.8065959811210632,
        1.4503060579299927
      ],
      "min": [
        -0.811007022857666,
        -0.5866259932518005,
        -0.0035490000154823065
      ],
      "type": "VEC3"
    },
    {
      "bufferView": 2,
      "byteOffset": 159792,
      "componentType": 5126,
      "count": 13316,
      "max": [
        0.9995619654655457,
        0.9998571872711182,
        0.9999775886535645
      ],
      "min": [
        -0.9999240636825562,
        -0.999718964099884,
        -1.0
      ],
      "type": "VEC3"
    },
    {
      "bufferView": 1,
      "componentType": 5126,
      "count": 13316,
      "max": [
        0.9914219975471497,
        0.9964460134506226
      ],
      "min": [
        0.00031599999056197703,
        0.00031599999056197703
      ],
      "type": "VEC2"
    },
    {
      "bufferView": 0,
      "componentType": 5125,
      "count": 75204,
      "type": "SCALAR"
    },
    {
      "bufferView": 2,
      "byteOffset": 319584,
      "componentType": 5126,
      "count": 13111,
      "max": [
        0.4898880124092102,
        0.8115249872207642,
        1.4552669525146484
      ],
      "min": [
        -0.8160399794578552,
        -0.5914430022239685,
        -0.008469000458717346
      ],
      "type": "VEC3"
    },
    {
      "bufferView": 2,
      "byteOffset": 476916,
      "componentType": 5126,
      "count": 13111,
      "max": [
        0.9999216794967651,
        0.9999352693557739,
        1.0
      ],
      "min": [
        -0.9995545744895935,
        -0.9998944997787476,
        -0.9999806880950928
      ],
      "type": "VEC3"
    },
    {
      "bufferView": 1,
      "byteOffset": 106528,
      "componentType": 5126,
      "count": 13111,
      "max": [
        0.9914219975471497,
        0.9964460134506226
      ],
      "min": [
        0.00031599999056197703,
        0.00031599999056197703
      ],
      "type": "VEC2"
    },
    {
      "bufferView": 0,
      "byteOffset": 300816,
      "componentType": 5125,
      "count": 73980,
      "type": "SCALAR"
    }
  ],
  "asset": {
    "extras": {
      "author": "kuayarts (https://sketchfab.com/kuayarts)",
      "license": "CC-BY-4.0 (http://creativecommons.org/licenses/by/4.0/)",
      "source": "https://sketchfab.com/3d-models/pokemon-cubone-skeleton-5cbad8c14a2f4c1094bb728771198ddb",
      "title": "Pokemon Cubone - Skeleton"
    },
    "generator": "Sketchfab-14.5.0",
    "version": "2.0"
  },
  "bufferViews": [
    {
      "buffer": 0,
      "byteLength": 596736,
      "name": "floatBufferViews",
      "target": 34963
    },
    {
      "buffer": 0,
      "byteLength": 211416,
      "byteOffset": 596736,
      "byteStride": 8,
      "name": "floatBufferViews",
      "target": 34962
    },
    {
      "buffer": 0,
      "byteLength": 634248,
      "byteOffset": 808152,
      "byteStride": 12,
      "name": "floatBufferViews",
      "target": 34962
    }
  ],
  "buffers": [
    {
      "byteLength": 1442400,
      "uri": "scene.bin"
    }
  ],
  "extensionsUsed": [
    "KHR_materials_unlit"
  ],
  "images": [
    {
      "uri": "textures/Material_baseColor.png"
    }
  ],
  "materials": [
    {
      "doubleSided": true,
      "extensions": {
        "KHR_materials_unlit": {}
      },
      "name": "Material",
      "pbrMetallicRoughness": {
        "baseColorTexture": {
          "index": 0
        },
        "metallicFactor": 0.0
      }
    },
    {
      "extensions": {
        "KHR_materials_unlit": {}
      },
      "name": "Outline",
      "pbrMetallicRoughness": {
        "baseColorFactor": [
          0.01599629336550963,
          0.0003035269835488387,
          0.0003035269835488387,
          1.0
        ],
        "metallicFactor": 0.0
      }
    }
  ],
  "meshes": [
    {
      "name": "Object_0",
      "primitives": [
        {
          "attributes": {
            "NORMAL": 1,
            "POSITION": 0,
            "TEXCOORD_0": 2
          },
          "indices": 3,
          "material": 0,
          "mode": 4
        }
      ]
    },
    {
      "name": "Object_1",
      "primitives": [
        {
          "attributes": {
            "NORMAL": 5,
            "POSITION": 4,
            "TEXCOORD_0": 6
          },
          "indices": 7,
          "material": 1,
          "mode": 4
        }
      ]
    }
  ],
  "nodes": [
    {
      "children": [
        1
      ],
      "matrix": [
        1.0,
        0.0,
        0.0,
        0.0,
        0.0,
        2.220446049250313e-16,
        -1.0,
        0.0,
        0.0,
        1.0,
        2.220446049250313e-16,
        0.0,
        0.0,
        0.0,
        0.0,
        1.0
      ],
      "name": "Sketchfab_model"
    },
    {
      "children": [
        2,
        3
      ],
      "name": "BLENDER_Cubone.obj.cleaner.materialmerger.gles"
    },
    {
      "mesh": 0,
      "name": "Object_2"
    },
    {
      "mesh": 1,
      "name": "Object_3"
    }
  ],
  "samplers": [
    {
      "magFilter": 9729,
      "minFilter": 9987,
      "wrapS": 10497,
      "wrapT": 10497
    }
  ],
  "scene": 0,
  "scenes": [
    {
      "name": "Sketchfab_Scene",
      "nodes": [
        0
      ]
    }
  ],
  "textures": [
    {
      "sampler": 0,
      "source": 0
    }
  ]
}
